<mxfile host="app.diagrams.net" modified="2023-11-06T13:47:56.463Z" agent="Mozilla/5.0 (Windows NT 10.0; Win64; x64) AppleWebKit/537.36 (KHTML, like Gecko) Chrome/119.0.0.0 Safari/537.36 Edg/119.0.0.0" version="22.0.8" etag="3lUCKg7OfBZFTJ9LTTDj" type="github">
  <diagram name="第 1 页" id="s7CgPSMXxmN-L5a0VLXN">
    <mxGraphModel>
      <root>
        <mxCell id="0" />
        <mxCell id="1" parent="0" />
      </root>
    </mxGraphModel>
  </diagram>
</mxfile>
